<?xml version="1.0" standalone="no"?>
<!DOCTYPE svg PUBLIC "-//W3C//DTD SVG 20010904//EN"
 "http://www.w3.org/TR/2001/REC-SVG-20010904/DTD/svg10.dtd">
<svg version="1.0" xmlns="http://www.w3.org/2000/svg"
 width="612.000000pt" height="612.000000pt" viewBox="0 0 612.000000 612.000000"
 preserveAspectRatio="xMidYMid meet">

<g transform="translate(0.000000,612.000000) scale(0.100000,-0.100000)"
fill="#000000" stroke="none">
<path d="M2920 4793 c-249 -19 -541 -114 -760 -247 -818 -500 -1081 -1558
-590 -2379 378 -633 1126 -960 1848 -807 315 67 594 213 844 444 61 57 61 65
0 57 -8 -1 -20 3 -28 10 -10 8 -14 8 -14 0 0 -6 -4 -11 -10 -11 -5 0 -10 17
-10 37 l0 36 -24 -22 c-14 -13 -22 -29 -19 -37 3 -9 -2 -14 -16 -14 -12 0 -56
-27 -98 -61 -192 -152 -416 -257 -667 -311 -150 -32 -464 -33 -623 0 -483 98
-891 403 -1112 832 -137 265 -190 506 -178 805 7 170 29 294 81 448 157 470
532 846 1001 1003 198 66 275 78 515 78 184 0 229 -3 314 -22 320 -71 583
-211 801 -427 149 -147 233 -261 317 -430 125 -252 175 -485 165 -775 -10
-288 -77 -515 -218 -748 -30 -50 -37 -68 -29 -82 13 -24 13 -100 1 -100 -6 0
-11 23 -13 51 l-3 50 -22 -21 c-14 -13 -23 -33 -23 -51 0 -21 -4 -29 -14 -27
-22 4 -116 -111 -116 -141 0 -19 3 -22 12 -13 7 7 18 12 25 12 11 0 11 -4 1
-20 -10 -15 -10 -22 0 -32 9 -9 12 -9 12 0 0 7 10 17 23 22 17 7 18 9 5 9 -28
1 -21 21 7 21 13 0 28 -7 33 -16 8 -15 10 -15 15 0 4 9 13 16 22 16 8 0 15 4
15 9 0 4 20 29 45 54 25 26 45 52 45 57 0 6 6 8 13 4 8 -5 9 -4 2 4 -5 5 -19
12 -30 14 -14 2 -20 11 -20 28 0 20 7 27 33 35 41 12 35 31 -9 28 -32 -3 -33
-2 -15 12 33 25 54 17 72 -25 10 -23 16 -15 77 110 81 164 139 335 168 495 32
170 32 440 1 607 -165 888 -956 1498 -1852 1431z"/>
<path d="M2865 4328 c-30 -89 -101 -248 -151 -338 -61 -109 -132 -215 -314
-470 -213 -299 -281 -421 -320 -574 -89 -352 135 -784 474 -911 144 -54 288
-54 451 1 l75 25 29 -21 c17 -11 59 -34 96 -51 139 -66 346 -44 490 51 37 24
40 29 40 72 0 26 6 53 12 59 17 17 92 18 95 2 5 -20 92 115 128 196 124 284
118 637 -17 949 l-19 44 -111 -124 c-210 -234 -254 -268 -522 -399 -144 -71
-174 -90 -226 -143 -137 -140 -176 -305 -112 -466 l24 -57 -55 -18 c-261 -82
-524 49 -666 333 -67 132 -85 326 -45 458 37 124 114 252 318 534 152 210 271
395 332 515 l53 106 18 -23 c116 -149 361 -530 471 -733 42 -77 80 -146 84
-153 7 -11 19 -9 66 12 31 13 57 28 57 32 0 16 -142 277 -217 399 -162 263
-390 591 -514 738 -4 5 -15 -15 -24 -45z m1052 -1474 c6 -165 -7 -257 -51
-380 -55 -152 -168 -286 -291 -344 -60 -29 -83 -34 -163 -38 -71 -3 -103 0
-137 13 -25 9 -47 20 -50 24 -2 4 35 34 83 67 84 57 312 268 374 346 34 44 32
48 -32 93 l-40 28 -109 -115 c-111 -116 -225 -213 -331 -280 l-58 -37 -21 49
c-31 71 -28 140 8 217 48 101 92 136 301 240 206 103 283 156 403 279 l82 83
13 -47 c8 -26 16 -115 19 -198z"/>
<path d="M3763 2148 c2 -7 10 -13 17 -13 7 0 15 6 18 13 2 7 -5 12 -18 12 -13
0 -20 -5 -17 -12z"/>
<path d="M4464 2116 c-15 -12 -17 -17 -6 -28 15 -15 45 0 50 26 4 20 -18 21
-44 2z"/>
</g>
</svg>
