<?xml version="1.0" standalone="no"?>
<!DOCTYPE svg PUBLIC "-//W3C//DTD SVG 20010904//EN"
 "http://www.w3.org/TR/2001/REC-SVG-20010904/DTD/svg10.dtd">
<svg version="1.0" xmlns="http://www.w3.org/2000/svg"
 width="261.000000pt" height="193.000000pt" viewBox="0 0 261.000000 193.000000"
 preserveAspectRatio="xMidYMid meet">

<g transform="translate(0.000000,193.000000) scale(0.100000,-0.100000)"
fill="#000000" stroke="none">
<path d="M200 1900 c-19 -36 3 -59 63 -62 l52 -3 3 -87 c2 -79 1 -88 -18 -98
-18 -10 -20 -20 -20 -100 l0 -89 -42 -11 c-150 -40 -250 -177 -233 -319 30
-251 126 -999 130 -1009 4 -10 76 -13 352 -12 l348 1 65 -27 c134 -55 231 -69
500 -68 258 0 365 12 510 56 56 18 90 20 258 19 251 -3 242 -7 242 130 l0 100
34 33 c21 19 37 45 40 66 4 19 33 359 66 755 41 510 56 723 48 732 -8 10 -101
13 -420 13 -357 0 -409 -2 -414 -15 -4 -9 8 -173 26 -365 17 -193 30 -354 28
-359 -2 -5 -36 11 -75 35 -40 24 -105 57 -145 73 -79 31 -214 65 -227 57 -5
-3 -11 -29 -14 -58 -8 -72 -23 -119 -50 -159 -22 -33 -24 -34 -134 -46 -97
-11 -166 -28 -237 -58 -16 -7 -18 -5 -13 8 14 37 19 193 7 236 -17 65 -109
154 -180 175 -30 9 -62 16 -72 16 -16 0 -18 10 -18 90 0 71 -3 92 -15 96 -12
5 -15 26 -15 100 l0 94 48 0 c44 0 52 -4 92 -45 49 -50 73 -54 97 -18 14 21
12 26 -43 83 l-57 60 -278 0 c-268 0 -279 -1 -289 -20z m1698 -77 c-3 -46 -4
-48 -37 -51 -40 -4 -51 9 -51 61 l0 37 46 0 45 0 -3 -47z m132 -3 l0 -50 -40
0 -40 0 0 50 0 50 40 0 40 0 0 -50z m130 0 l0 -50 -40 0 -40 0 0 50 0 50 40 0
40 0 0 -50z m138 3 l-3 -48 -42 -3 -43 -3 0 50 0 51 46 0 45 0 -3 -47z m132
-4 l0 -50 -42 3 -43 3 -3 48 -3 47 45 0 46 0 0 -51z m130 39 c0 -7 -3 -30 -6
-50 -6 -35 -9 -38 -40 -38 l-34 0 0 50 0 50 40 0 c25 0 40 -5 40 -12z m-1990
-113 l0 -95 -95 0 -95 0 0 95 0 95 95 0 95 0 0 -95z m1975 -52 c-3 -21 -23
-267 -45 -548 -22 -280 -43 -529 -46 -552 l-5 -43 -190 0 -189 0 0 98 c0 82
-3 103 -21 132 -19 30 -26 77 -50 324 -15 159 -33 294 -39 300 -7 7 -14 6 -22
-2 -10 -10 -9 -52 4 -194 10 -100 16 -183 15 -185 -2 -1 -21 22 -44 51 l-41
53 -21 254 c-12 140 -24 275 -27 302 l-6 47 366 0 366 0 -5 -37z m-1945 -168
l0 -65 -130 0 -130 0 0 65 0 65 130 0 130 0 0 -65z m161 -153 c66 -34 119
-105 119 -161 1 -20 -27 -262 -62 -538 l-63 -503 -285 0 -286 0 -52 397 c-66
497 -77 600 -68 645 13 69 87 145 171 176 18 6 120 11 251 11 l222 1 53 -28z
m751 -98 c105 -33 183 -73 241 -121 24 -21 61 -50 80 -65 20 -16 43 -40 51
-55 52 -96 51 -92 33 -106 -12 -9 -17 -31 -19 -87 -3 -71 -4 -75 -31 -88 -16
-8 -72 -23 -125 -35 -83 -18 -131 -21 -327 -22 -237 0 -307 7 -427 45 -94 30
-98 35 -91 109 6 58 7 62 27 56 185 -61 421 -85 648 -67 145 12 290 40 311 61
17 17 -19 14 -109 -10 -64 -17 -118 -22 -290 -26 -226 -6 -334 3 -467 39 -89
24 -107 38 -45 38 127 0 254 43 322 108 46 45 92 136 101 203 4 31 12 49 20
49 8 0 51 -12 97 -26z m-307 -240 c-11 -8 -41 -21 -68 -29 -51 -15 -197 -32
-197 -22 0 10 104 40 185 53 104 16 103 16 80 -2z m815 -283 c6 -12 10 -125
10 -298 l0 -278 -33 -21 c-107 -71 -450 -119 -689 -96 -221 21 -495 89 -491
122 9 78 67 546 68 547 0 1 29 -9 62 -23 93 -37 232 -54 443 -54 204 1 291 9
425 41 107 25 154 44 161 64 8 21 31 19 44 -4z m422 -305 c-8 -65 -24 -71
-208 -74 l-164 -4 0 56 0 56 188 0 188 0 -4 -34z"/>
<path d="M1914 1578 c3 -34 12 -65 18 -69 20 -13 39 12 33 43 -3 15 -8 42 -11
58 -4 22 -11 30 -26 30 -20 0 -20 -4 -14 -62z"/>
<path d="M214 1133 c2 -16 17 -196 32 -401 l28 -372 200 2 201 3 26 340 c15
187 29 366 32 398 l5 57 -265 0 -265 0 6 -27z"/>
<path d="M982 428 l3 -182 74 -23 c41 -12 120 -30 174 -39 176 -29 436 -7 572
50 l35 15 0 177 0 176 -22 -5 c-13 -3 -68 -15 -123 -28 -143 -32 -391 -33
-553 -1 -62 13 -124 27 -138 32 l-24 10 2 -182z"/>
</g>
</svg>
