<?xml version="1.0" standalone="no"?>
<!DOCTYPE svg PUBLIC "-//W3C//DTD SVG 20010904//EN"
 "http://www.w3.org/TR/2001/REC-SVG-20010904/DTD/svg10.dtd">
<svg version="1.0" xmlns="http://www.w3.org/2000/svg"
 width="360.000000pt" height="360.000000pt" viewBox="0 0 360.000000 360.000000"
 preserveAspectRatio="xMidYMid meet">

<g transform="translate(0.000000,360.000000) scale(0.100000,-0.100000)"
fill="#000000" stroke="none">
<path d="M1556 2958 c-9 -28 -17 -72 -36 -202 l-20 -137 21 -225 21 -226 -24
-25 c-12 -14 -36 -34 -51 -45 l-28 -20 -64 61 c-35 34 -67 61 -71 61 -5 0 -36
-28 -70 -61 l-62 -61 -60 61 c-33 33 -66 61 -73 61 -25 -1 -169 -144 -169
-168 0 -12 19 -43 41 -67 37 -40 39 -45 23 -51 -39 -15 -75 -47 -95 -87 -32
-61 -22 -130 50 -348 56 -171 68 -219 57 -219 -3 0 -42 14 -88 31 -68 25 -93
30 -139 26 -76 -7 -146 -44 -208 -113 l-53 -58 4 -61 c9 -141 125 -303 267
-373 74 -37 76 -37 197 -37 l122 0 90 46 90 46 43 -45 c88 -90 219 -120 323
-74 45 20 45 20 96 1 30 -11 75 -19 113 -19 66 0 76 4 219 85 49 28 60 30 153
30 119 -1 188 -23 258 -85 79 -70 97 -51 97 99 l0 101 227 0 c207 0 230 2 268
20 45 22 65 53 65 103 1 18 -11 145 -26 282 l-26 250 50 550 51 550 -24 163
c-13 90 -29 170 -36 178 -18 21 -76 17 -156 -12 l-73 -27 -72 27 c-91 33 -114
33 -209 -1 l-76 -27 -60 27 c-75 34 -120 34 -211 2 -77 -27 -95 -26 -167 6
-55 26 -111 23 -191 -7 l-68 -25 -70 25 c-76 28 -164 35 -170 14z m139 -78
c62 -27 142 -26 205 1 56 24 86 22 174 -10 66 -25 109 -22 180 10 53 24 83 24
142 -3 63 -27 143 -27 204 1 56 26 86 26 144 2 79 -34 106 -35 190 -6 43 15
82 23 86 18 7 -7 40 -190 40 -222 0 -8 -196 -11 -740 -11 -585 0 -740 3 -740
13 0 6 7 60 17 120 19 121 19 121 98 87z m1367 -335 c-5 -67 -71 -783 -84
-902 l-11 -113 -297 0 -298 0 25 78 c16 49 26 103 27 150 l1 73 -41 37 c-22
20 -48 42 -58 47 -15 9 -1 23 96 100 62 50 118 101 125 115 28 61 -11 113
-167 218 -98 66 -143 78 -187 47 -11 -8 -58 -85 -104 -170 -45 -85 -85 -155
-89 -155 -3 0 -28 23 -55 51 -83 84 -91 84 -178 1 l-47 -47 -52 53 -52 52 -18
162 c-9 90 -17 182 -17 206 l-1 42 742 -2 743 -3 -3 -40z m-691 -278 c77 -54
104 -78 104 -94 0 -16 -38 -52 -137 -132 -162 -131 -176 -135 -241 -69 l-41
41 23 41 c12 23 41 77 63 121 70 136 89 165 107 165 10 0 65 -33 122 -73z
m-1207 -280 l45 -52 -81 -3 -81 -3 -49 48 -48 47 42 43 41 42 43 -35 c24 -20
63 -59 88 -87z m231 33 l90 -90 -83 0 -83 0 -50 47 -50 46 43 44 c23 24 42 43
43 43 0 0 41 -40 90 -90z m276 -88 l-85 -3 -45 45 -45 46 44 45 45 46 85 -88
85 -88 -84 -3z m279 83 l85 -85 -91 0 -91 0 -41 44 -41 44 42 41 c23 23 44 41
47 41 3 0 43 -38 90 -85z m344 -169 c41 -17 66 -51 66 -89 0 -16 -21 -95 -46
-176 -25 -80 -50 -160 -55 -177 l-10 -32 -82 5 c-134 8 -247 -30 -359 -121
-31 -25 -62 -46 -68 -46 -6 0 -32 -9 -58 -20 l-47 -20 -59 20 c-66 22 -113 25
-168 10 -34 -10 -42 -8 -109 34 -86 54 -136 64 -210 42 -29 -8 -54 -14 -55
-13 -1 1 -18 56 -39 122 -20 66 -49 156 -65 200 -54 157 -46 236 30 262 55 19
1289 18 1334 -1z m681 -428 c11 -83 35 -320 35 -349 0 -27 -4 -25 -78 51 -65
65 -94 87 -172 125 -109 52 -203 75 -312 75 -78 0 -128 14 -128 35 0 6 7 32
16 58 l16 47 308 0 309 0 6 -42z m-703 -133 c57 -20 132 -84 158 -136 27 -51
26 -66 -2 -45 -13 9 -52 31 -87 48 -80 39 -210 50 -308 25 -60 -16 -63 -16
-112 6 -28 12 -49 27 -48 32 6 17 90 59 157 77 75 21 169 18 242 -7z m-1422
-65 c95 -34 148 -37 245 -15 76 18 122 10 170 -29 l30 -24 -23 -29 c-12 -15
-32 -43 -44 -61 -15 -24 -24 -30 -31 -23 -18 18 -43 12 -75 -19 -38 -36 -49
-37 -91 -5 -26 19 -38 22 -52 14 -11 -5 -19 -13 -19 -17 0 -20 -43 -52 -69
-52 -30 0 -50 18 -69 63 -14 32 -34 34 -73 6 -35 -25 -55 -16 -78 32 -17 36
-27 38 -98 23 -26 -5 -32 -3 -38 16 -12 37 76 117 155 141 44 13 73 9 160 -21z
m1751 14 c74 -22 164 -69 224 -116 58 -46 157 -158 152 -173 -2 -6 -84 -11
-224 -13 l-221 -2 -4 92 c-3 78 -9 104 -35 161 l-32 67 43 0 c23 0 67 -7 97
-16z m-1040 -111 c5 -5 -4 -33 -19 -63 -23 -47 -27 -68 -27 -140 0 -72 4 -93
27 -140 17 -34 24 -58 18 -64 -5 -5 -36 -11 -67 -14 -177 -11 -289 178 -198
333 27 47 60 72 120 92 40 13 132 10 146 -4z m356 -15 c56 -37 93 -113 93
-190 0 -194 -229 -290 -365 -153 -108 107 -76 293 60 357 60 28 159 21 212
-14z m365 -8 c84 -25 178 -112 178 -166 0 -13 -2 -24 -5 -24 -3 0 -29 16 -58
35 -69 45 -162 69 -249 63 l-68 -5 -18 41 c-26 58 -26 60 0 68 31 10 174 2
220 -12z m-1652 -115 c29 -30 75 -45 112 -34 23 6 33 2 63 -28 33 -33 39 -35
88 -31 33 3 64 12 82 26 25 19 35 21 64 12 38 -11 74 -5 110 17 30 19 38 10
43 -55 l5 -54 -52 -34 c-131 -87 -292 -87 -431 1 -67 43 -154 152 -154 195 0
20 47 10 70 -15z m1673 -75 c69 -26 116 -66 139 -117 11 -25 18 -47 15 -49 -2
-2 -24 7 -48 20 -77 43 -152 59 -251 54 -86 -4 -89 -4 -84 16 3 12 6 38 6 58
0 32 3 37 28 41 45 8 144 -4 195 -23z"/>
<path d="M1784 1075 c-10 -25 3 -44 40 -59 20 -8 42 -28 51 -46 13 -25 21 -31
43 -28 82 9 -14 148 -103 148 -14 0 -28 -7 -31 -15z"/>
</g>
</svg>
